<svg xmlns="http://www.w3.org/2000/svg" xmlns:xlink="http://www.w3.org/1999/xlink" version="1.1" id="Layer_1" x="0px" y="0px" viewBox="0 0 215.1 215.1" enable-background="new 0 0 215.1 215.1" xml:space="preserve">
<g>
	<path class="solar-system" fill="#F05233" d="M215.1 107.6c0 59.4-48.2 107.6-107.6 107.6C48.2 215.1 0 167 0 107.6C0 48.2 48.2 0 107.6 0 C167 0 215.1 48.2 215.1 107.6z"/>
	<g>
		<path class="sun" fill="#FFFFFF" d="M107.6 98.5c-5 0-9.1 4.1-9.1 9.1c0 5 4.1 9.1 9.1 9.1c5 0 9.1-4.1 9.1-9.1 C116.6 102.5 112.6 98.5 107.6 98.5z M107.6 113.8c-3.4 0-6.2-2.8-6.2-6.2c0-3.4 2.8-6.2 6.2-6.2c3.4 0 6.2 2.8 6.2 6.2 C113.8 111 111 113.8 107.6 113.8z"/>
		<path class="mercury" fill="#FFFFFF" d="M133.1 15.4C84.8 2 33.7 28.4 17.2 76.4C0 126.4 26.5 180.7 76.4 197.9c49.9 17.2 104.3-9.3 121.5-59.3 c16.5-48-7.4-100.2-53.8-119.4c0.4-2.8-1.3-5.5-4-6.4C137.4 11.9 134.5 13.1 133.1 15.4z M195.3 137.7 c-16.7 48.4-69.5 74.2-117.9 57.5C28.9 178.6 3.2 125.8 19.9 77.4c16-46.6 65.5-72.2 112.4-59.2c-0.2 2.6 1.4 5.1 4 6 c2.6 0.9 5.4-0.1 6.9-2.3C188.1 40.5 211.3 91.2 195.3 137.7z M141.3 18.1c0.1 0.5 0 0.9-0.1 1.4c-0.2 0.5-0.5 0.9-0.8 1.3 c-0.8 0.8-2 1.1-3.1 0.7c-1.1-0.4-1.9-1.4-2.1-2.5c-0.1-0.5-0.1-1 0.1-1.5c0.2-0.5 0.4-0.9 0.8-1.2c0.8-0.8 2.1-1.2 3.2-0.7 C140.4 16 141.2 17 141.3 18.1z"/>
		<path class="venus" fill="#FFFFFF" d="M27.1 136c14.8 42 59.7 65.9 103.2 53.8c45.4-12.6 72-59.6 59.4-105c-12.6-45.4-59.6-72-105-59.4 C41.2 37.4 15 81.1 24 124.6c-2.5 1.3-3.8 4.1-3 6.9C21.7 134.4 24.3 136.1 27.1 136z M85.5 28c43.9-12.2 89.4 13.5 101.6 57.5 c12.2 43.9-13.5 89.4-57.5 101.5c-42 11.7-85.5-11.4-99.8-52c2.2-1.4 3.4-4.1 2.7-6.7c-0.7-2.6-3.1-4.4-5.8-4.4 C18.1 81.9 43.5 39.7 85.5 28z M24.6 127.6c0.3-0.3 0.7-0.5 1.2-0.7c0.5-0.1 1-0.1 1.5 0c1.1 0.2 2 1.1 2.3 2.2 c0.3 1.1-0.1 2.3-0.9 3.1c-0.4 0.3-0.8 0.6-1.3 0.8c-0.5 0.1-0.9 0.1-1.4 0.1c-1.1-0.2-2.1-1-2.5-2.2 C23.4 129.6 23.8 128.4 24.6 127.6z"/>
		<path class="earth" fill="#FFFFFF" d="M58.8 164.6c29.5 25.3 73.9 23.9 101.9-4c29.3-29.3 29.3-76.9 0-106.2c-29.3-29.3-76.9-29.3-106.2 0 c-27.9 27.9-29.2 72.4-4 101.9c-1.6 2.3-1.3 5.5 0.8 7.6C53.3 165.9 56.5 166.2 58.8 164.6z M56.5 56.5c28.2-28.2 74-28.2 102.2 0 c28.2 28.2 28.2 74 0 102.2c-26.9 26.9-69.6 28.1-97.9 3.9c1.3-2.3 0.9-5.2-1-7.2c-1.9-1.9-4.9-2.3-7.2-1 C28.3 126 29.6 83.3 56.5 56.5z M52.5 158.6c0.1-0.4 0.4-0.8 0.7-1.2c0.4-0.4 0.8-0.6 1.3-0.8c1.1-0.3 2.3-0.1 3.1 0.8 c0.8 0.8 1.1 2.1 0.8 3.1c-0.1 0.5-0.4 0.9-0.8 1.3c-0.3 0.3-0.8 0.6-1.2 0.7c-1.1 0.4-2.4 0.1-3.2-0.7 C52.4 161 52.1 159.7 52.5 158.6z"/>
		<path class="mars" fill="#FFFFFF" d="M157.4 149c21.3-25.5 20-63.4-4-87.3c-25.3-25.3-66.4-25.3-91.7 0c-25.3 25.3-25.3 66.4 0 91.7 c23.9 23.9 61.9 25.2 87.3 4c2.3 1.6 5.5 1.4 7.6-0.7C158.7 154.6 159 151.4 157.4 149z M63.7 151.4c-24.2-24.2-24.2-63.5 0-87.7 c24.2-24.2 63.5-24.2 87.7 0c22.8 22.8 24.1 59.1 3.9 83.4c-2.3-1.2-5.2-0.9-7.1 1c-1.9 1.9-2.3 4.8-1 7.1 C122.8 175.5 86.6 174.3 63.7 151.4z M151.4 155.4c-0.4-0.2-0.8-0.4-1.2-0.7c-0.4-0.4-0.6-0.9-0.8-1.3c-0.3-1.1-0.1-2.2 0.8-3.1 c0.8-0.8 2-1.1 3.1-0.8c0.5 0.1 1 0.4 1.3 0.8c0.3 0.3 0.6 0.7 0.7 1.2c0.4 1.1 0.2 2.4-0.7 3.3 C153.7 155.5 152.5 155.8 151.4 155.4z"/>
		<path class="jupiter" fill="#FFFFFF" d="M141.8 65c-21.4-17.3-52.9-16-72.9 3.9c-21.3 21.3-21.3 55.9 0 77.2c21.3 21.3 55.9 21.3 77.2 0 c19.9-19.9 21.2-51.4 3.9-72.9c1.6-2.3 1.4-5.5-0.7-7.6C147.3 63.6 144.1 63.4 141.8 65z M144.2 144.2c-20.2 20.2-53 20.2-73.2 0 c-20.2-20.2-20.2-53 0-73.2c18.9-18.9 48.6-20.1 68.9-3.8c-1.2 2.3-0.9 5.2 1 7.1c1.9 1.9 4.8 2.3 7.1 1 C164.3 95.6 163 125.3 144.2 144.2z M148.1 71c-0.1 0.4-0.4 0.8-0.7 1.2c-0.4 0.4-0.8 0.6-1.3 0.8c-1.1 0.3-2.3 0.1-3.1-0.8 c-0.8-0.8-1.1-2-0.8-3.1c0.1-0.5 0.4-0.9 0.8-1.3c0.3-0.3 0.8-0.6 1.2-0.7c1.1-0.4 2.4-0.1 3.2 0.7 C148.3 68.6 148.5 69.9 148.1 71z"/>
		<path class="saturn" fill="#FFFFFF" d="M113.4 151.6c21.7-2.9 38.5-21.5 38.5-44c0-24.5-19.9-44.4-44.4-44.4C83 63.2 63.2 83 63.2 107.6 c0 22.5 16.8 41.1 38.5 44c0.5 2.8 2.9 4.9 5.9 4.9C110.5 156.5 112.9 154.4 113.4 151.6z M66 107.6C66 84.6 84.6 66 107.6 66 c22.9 0 41.5 18.6 41.5 41.5c0 21-15.6 38.4-35.8 41.1c-0.8-2.4-3-4.2-5.7-4.2c-2.7 0-5 1.8-5.7 4.2C81.6 145.9 66 128.6 66 107.6 z M104.8 151.9c-0.2-0.4-0.3-0.9-0.3-1.4c0-0.5 0.1-1 0.4-1.5c0.5-1 1.6-1.6 2.7-1.6c1.2 0 2.2 0.7 2.7 1.6 c0.2 0.4 0.4 0.9 0.4 1.5c0 0.5-0.1 1-0.3 1.4c-0.5 1-1.6 1.7-2.8 1.7C106.3 153.6 105.3 152.9 104.8 151.9z"/>
		<path class="uranus" fill="#FFFFFF" d="M95.9 139.6c15.3 5.6 32.8-0.4 41.2-15c9.4-16.3 3.8-37.2-12.5-46.6c-16.3-9.4-37.2-3.8-46.6 12.5 c-8.4 14.6-4.8 32.7 7.6 43.2c-1.1 2.7 0 5.9 2.6 7.4C90.8 142.6 94.1 141.9 95.9 139.6z M80.5 91.9c8.6-15 27.8-20.1 42.8-11.5 c15 8.6 20.1 27.8 11.5 42.7C127 136.5 111.1 142 97.1 137c0.5-2.4-0.6-5-2.9-6.4c-2.3-1.3-5.1-1-6.9 0.7 C76 121.8 72.8 105.2 80.5 91.9z M88.1 135.6c0-0.4 0.2-0.9 0.4-1.3c0.3-0.5 0.7-0.9 1.1-1.1c0.9-0.6 2.1-0.6 3.1 0 c1 0.6 1.6 1.6 1.5 2.7c0 0.5-0.1 1-0.4 1.5c-0.2 0.4-0.5 0.7-0.9 1c-1 0.7-2.3 0.8-3.4 0.2C88.6 137.9 88 136.7 88.1 135.6z"/>
		<path class="neptune" fill="#FFFFFF" d="M131 111.9c2-10.5-3.3-21.3-13.4-26c-11.9-5.6-26.1-0.4-31.7 11.5c-5.6 11.9-0.4 26.2 11.5 31.7 c10.1 4.7 21.8 1.8 28.5-6.5c2.9 1 6-0.3 7.3-3.1C134.6 116.8 133.6 113.5 131 111.9z M98.7 126.6c-10.5-4.9-15.1-17.4-10.2-28 c4.9-10.5 17.4-15.1 28-10.2c8.8 4.1 13.4 13.5 11.8 22.6c-2.4-0.2-4.7 1.1-5.8 3.4c-1.1 2.3-0.6 4.9 1.1 6.7 C117.6 128.2 107.4 130.7 98.7 126.6z M127.8 120.2c-0.4 0-0.8-0.1-1.2-0.3c-0.5-0.2-1-0.6-1.3-1.1c-0.6-0.9-0.7-2-0.3-3.1 c0.5-1 1.5-1.7 2.5-1.8c0.5-0.1 1.1 0 1.6 0.3c0.4 0.2 0.7 0.4 1 0.8c0.8 0.9 1 2.2 0.5 3.4C130.2 119.5 129 120.2 127.8 120.2z"/>
	</g>
</g>
</svg>
