<?xml version="1.0" encoding="utf-8"?>
<!-- Generator: Adobe Illustrator 18.1.0, SVG Export Plug-In . SVG Version: 6.00 Build 0)  -->
<!DOCTYPE svg PUBLIC "-//W3C//DTD SVG 1.1//EN" "http://www.w3.org/Graphics/SVG/1.1/DTD/svg11.dtd">
<svg version="1.1" id="Layer_1" xmlns="http://www.w3.org/2000/svg" xmlns:xlink="http://www.w3.org/1999/xlink" x="0px" y="0px"
	 viewBox="0 0 63.4 127.8" enable-background="new 0 0 63.4 127.8" xml:space="preserve">
<path opacity="0.4" fill="#FFFFFF" d="M57.4,108.6c-0.5,0-0.9,0.1-1.3,0.2L41.7,78.6c1.4-1.1,2.2-2.8,2.2-4.7c0-2.8-2-5.2-4.6-5.8
	L37.2,53c2.5-0.7,4.3-3,4.3-5.7c0-3.3-2.7-6-6-6c-0.3,0-0.5,0-0.8,0.1l-6.8-15.9c1.2-1.1,1.9-2.7,1.9-4.4c0-3.3-2.7-6-6-6
	c-1.1,0-2.2,0.3-3.1,0.9L11.6,8C11.9,7.4,12,6.7,12,6c0-3.3-2.7-6-6-6S0,2.7,0,6s2.7,6,6,6c1.5,0,2.9-0.6,3.9-1.5l8.8,7.6
	c-0.5,0.9-0.8,1.9-0.8,3c0,3.3,2.7,6,6,6c0.5,0,1-0.1,1.4-0.2L32,42.5c-1.5,1.1-2.4,2.8-2.4,4.8c0,2.9,2,5.2,4.7,5.8l2.1,15
	c-2.5,0.7-4.3,3-4.3,5.8c0,0.7,0.1,1.4,0.4,2.1l-11,9.2c-0.8-0.5-1.8-0.7-2.8-0.7c-3.3,0-6,2.7-6,6s2.7,6,6,6c0.4,0,0.8,0,1.2-0.1
	l9.6,20.8c-1.3,1.1-2.2,2.8-2.2,4.6c0,3.3,2.7,6,6,6s6-2.7,6-6c0-0.2,0-0.5,0-0.7l13.3-3.5c1,1.8,3,3,5.2,3c3.3,0,6-2.7,6-6
	C63.4,111.3,60.7,108.6,57.4,108.6z M6,9C4.3,9,3,7.6,3,6s1.3-3,3-3s3,1.3,3,3S7.6,9,6,9z M20.9,21.1c0-1.7,1.3-3,3-3
	c1.7,0,3,1.3,3,3c0,1.7-1.3,3-3,3C22.2,24.1,20.9,22.7,20.9,21.1z M32.6,47.3c0-1.7,1.3-3,3-3s3,1.3,3,3c0,1.7-1.3,3-3,3
	S32.6,49,32.6,47.3z M38,71c1.7,0,3,1.3,3,3s-1.3,3-3,3s-3-1.3-3-3S36.3,71,38,71z M15.5,90.5c0-1.7,1.3-3,3-3s3,1.3,3,3s-1.3,3-3,3
	S15.5,92.2,15.5,90.5z M33,124.8c-1.7,0-3-1.3-3-3c0-1.7,1.3-3,3-3s3,1.3,3,3C36,123.4,34.7,124.8,33,124.8z M37.9,118.3
	c-1.1-1.5-2.9-2.5-4.9-2.5c-0.4,0-0.7,0-1.1,0.1l-9.6-20.8c1.3-1.1,2.1-2.7,2.1-4.6c0-1.2-0.4-2.3-1-3.2L34,78.5
	c1.1,0.9,2.4,1.5,3.9,1.5c0.4,0,0.7,0,1-0.1l14.4,30.3c-1.2,1.1-2,2.7-2,4.5c0,0.1,0,0.1,0,0.1L37.9,118.3z M57.4,117.6
	c-1.7,0-3-1.3-3-3c0-1.7,1.3-3,3-3s3,1.3,3,3C60.4,116.2,59.1,117.6,57.4,117.6z"/>
</svg>
