<?xml version="1.0" encoding="utf-8"?>
<!-- Generator: Adobe Illustrator 17.1.0, SVG Export Plug-In . SVG Version: 6.00 Build 0)  -->
<!DOCTYPE svg PUBLIC "-//W3C//DTD SVG 1.1//EN" "http://www.w3.org/Graphics/SVG/1.1/DTD/svg11.dtd">
<svg version="1.1" xmlns="http://www.w3.org/2000/svg" xmlns:xlink="http://www.w3.org/1999/xlink" x="0px" y="0px"
	 viewBox="0 0 69.917 69.917" enable-background="new 0 0 69.917 69.917" xml:space="preserve">
<g id="Layer_2">
</g>
<g id="Layer_1">
	<g>
		<path fill="#161616" d="M39.117,22.56c-1.918,0-3.682,0.655-5.097,1.743l12.285,10.915c0.75-1.253,1.189-2.714,1.189-4.279
			C47.495,26.318,43.737,22.56,39.117,22.56z"/>
		<path fill="#161616" d="M34.983,0C15.662,0,0,15.662,0,34.983s15.662,34.983,34.983,34.983s34.983-15.662,34.983-34.983
			S54.303,0,34.983,0z M30.29,50.282H17.142l5.611-4.44l-3.03-3.577c0,0,1.823-2.928,5.948-4.577
			c2.694,5.712,8.542,7.365,8.542,7.365l-6.956,1.584L30.29,50.282z M51.81,45.711c-2.053,3.509-6.576,4.689-10.087,2.626
			c-1.61-0.944-2.722-2.409-3.263-4.05c-2.095-0.071-4.199-0.651-6.135-1.785c-3.384-1.986-5.528-5.263-6.204-8.84
			c-0.573-0.169-1.136-0.395-1.675-0.713c-3.506-2.059-4.683-6.576-2.624-10.088c2.061-3.511,6.578-4.687,10.093-2.623
			c0.006,0.002,0.014,0.01,0.022,0.015c3.995-2.535,9.229-2.811,13.589-0.251c5.872,3.441,8.05,10.778,5.184,16.819
			C52.987,39.14,53.533,42.772,51.81,45.711z"/>
	</g>
</g>
</svg>
