<?xml version="1.0" encoding="utf-8"?>
<!-- Generator: Adobe Illustrator 17.1.0, SVG Export Plug-In . SVG Version: 6.00 Build 0)  -->
<!DOCTYPE svg PUBLIC "-//W3C//DTD SVG 1.1//EN" "http://www.w3.org/Graphics/SVG/1.1/DTD/svg11.dtd">
<svg version="1.1" id="Layer_1" xmlns="http://www.w3.org/2000/svg" xmlns:xlink="http://www.w3.org/1999/xlink" x="0px" y="0px"
	 viewBox="0 0 104.9 94.3" enable-background="new 0 0 104.9 94.3" xml:space="preserve">
<g>
	<path fill="#3D3D3D" d="M98.7,54.7c8.4-17.8,2-39.3-15.2-49.5C70.7-2.3,55.3-1.5,43.5,6c0,0,0,0-0.1,0c-10.3-6.1-23.6-2.6-29.7,7.7
		C7.7,24,11.2,37.3,21.5,43.3c1.6,0.9,3.2,1.6,4.9,2.1c2,10.5,8.3,20.2,18.2,26c5.7,3.3,11.9,5,18,5.2c1.6,4.8,4.9,9.1,9.6,11.9
		c10.3,6.1,23.6,2.6,29.7-7.7C107,72.2,105.4,61.5,98.7,54.7z M85.8,50L49.6,17.9c4.2-3.2,9.4-5.1,15-5.1
		c13.6,0,24.6,11.1,24.6,24.6C89.3,42,88,46.3,85.8,50z"/>
	<path fill="#F47B20" d="M25.1,57.3C12.9,62.1,7.6,70.7,7.6,70.7l8.9,10.5L0,94.3h38.7l-8.9-10.7l20.5-4.7
		C50.2,78.9,33,74.1,25.1,57.3z"/>
</g>
</svg>
